<?xml version="1.0" standalone="no"?>
<!DOCTYPE svg PUBLIC "-//W3C//DTD SVG 20010904//EN"
 "http://www.w3.org/TR/2001/REC-SVG-20010904/DTD/svg10.dtd">
<svg version="1.0" xmlns="http://www.w3.org/2000/svg"
 width="16.000000pt" height="16.000000pt" viewBox="0 0 16.000000 16.000000"
 preserveAspectRatio="xMidYMid meet">
<metadata>
Created by potrace 1.11, written by Peter Selinger 2001-2013
</metadata>
<g transform="translate(0.000000,16.000000) scale(0.004000,-0.004000)"
fill="#000000" stroke="none">
<path d="M169 3208 c223 -481 294 -634 300 -640 6 -6 312 -28 319 -23 2 2 -51
105 -118 230 -66 125 -120 230 -118 234 3 6 241 -24 1138 -143 640 -86 1026
-136 1037 -136 7 0 22 -19 34 -41 25 -49 847 -1438 862 -1457 5 -7 8 -14 6
-16 -4 -3 -2044 -207 -2071 -206 -13 0 -45 54 -114 191 l-95 191 -62 -6 c-34
-3 -106 -8 -159 -12 -54 -3 -98 -9 -98 -12 0 -4 50 -114 111 -247 61 -132 129
-280 151 -330 23 -49 42 -91 43 -93 1 -1 77 9 169 23 91 14 368 55 614 90 246
36 524 77 617 90 418 62 607 90 852 124 145 21 266 40 269 44 3 3 -81 156
-187 339 -441 762 -552 956 -694 1202 -94 162 -157 261 -170 266 -11 4 -310
53 -665 108 -355 56 -946 149 -1315 207 -369 58 -675 105 -682 105 -7 0 3 -33
26 -82z"/>
</g>
</svg>
